<svg width="24" height="14" viewBox="0 0 24 14" fill="none" xmlns="http://www.w3.org/2000/svg">
<path d="M7 0C3.15455 0 0 3.15455 0 7C0 10.8455 3.15455 14 7 14C9.77499 14 12.0894 12.3147 13.2715 10H16V13H22V10H24V4H23H13.2871C12.1726 1.67556 9.83916 0 7 0ZM7 2C9.28025 2 11.0925 3.421 11.7559 5.32812L11.9883 6H22V8H20V11H18V8H12.0176L11.7695 8.63477C11.0101 10.5755 9.1641 12 7 12C4.24545 12 2 9.75455 2 7C2 4.24545 4.24545 2 7 2ZM7 4C5.35499 4 4 5.35499 4 7C4 8.64501 5.35499 10 7 10C8.64501 10 10 8.64501 10 7C10 5.35499 8.64501 4 7 4ZM7 6C7.56413 6 8 6.43587 8 7C8 7.56413 7.56413 8 7 8C6.43587 8 6 7.56413 6 7C6 6.43587 6.43587 6 7 6Z" fill="#494949"/>
</svg>
