<svg width="18" height="24" viewBox="0 0 18 24" fill="none" xmlns="http://www.w3.org/2000/svg">
<path d="M9 0C5.26071 0 2.25 3.0585 2.25 6.85714V8C1.0203 8 0 9.0365 0 10.2857V21.7143C0 22.9635 1.0203 24 2.25 24H15.75C16.9797 24 18 22.9635 18 21.7143V10.2857C18 9.0365 16.9797 8 15.75 8V6.85714C15.75 3.0585 12.7393 0 9 0ZM9 2.28571C11.5607 2.28571 13.5 4.25578 13.5 6.85714V8H4.5V6.85714C4.5 4.25578 6.43929 2.28571 9 2.28571ZM2.25 10.2857H15.75V21.7143H2.25V10.2857ZM9 13.7143C7.7625 13.7143 6.75 14.7429 6.75 16C6.75 17.2571 7.7625 18.2857 9 18.2857C10.2375 18.2857 11.25 17.2571 11.25 16C11.25 14.7429 10.2375 13.7143 9 13.7143Z" fill="#418C41"/>
</svg>
