<svg width="20" height="25" viewBox="0 0 20 25" fill="none" xmlns="http://www.w3.org/2000/svg">
<path d="M8.58571 13H11.4143C12.4105 13 13.3969 13.1903 14.3172 13.5601C15.2376 13.9299 16.0738 14.4719 16.7782 15.1552C17.4826 15.8385 18.0414 16.6496 18.4226 17.5424C18.8038 18.4351 19 19.392 19 20.3583V24H1V20.3583C1 18.4067 1.79921 16.5351 3.2218 15.1552C4.6444 13.7752 6.57386 13 8.58571 13V13Z" stroke="#53B253" stroke-width="1.5" stroke-miterlimit="10"/>
<path d="M9.5 10C11.9853 10 14 7.98528 14 5.5C14 3.01472 11.9853 1 9.5 1C7.01472 1 5 3.01472 5 5.5C5 7.98528 7.01472 10 9.5 10Z" stroke="#53B253" stroke-width="1.5" stroke-miterlimit="10"/>
</svg>
