<svg width="52" height="45" viewBox="0 0 52 45" fill="none" xmlns="http://www.w3.org/2000/svg">
<path d="M33.5833 8.78049C35.9667 8.78049 37.9167 6.80488 37.9167 4.39024C37.9167 1.97561 35.9667 0 33.5833 0C31.2 0 29.25 1.97561 29.25 4.39024C29.25 6.80488 31.2 8.78049 33.5833 8.78049ZM10.8333 23.0488C4.76667 23.0488 0 27.878 0 34.0244C0 40.1707 4.76667 45 10.8333 45C16.9 45 21.6667 40.1707 21.6667 34.0244C21.6667 27.878 16.9 23.0488 10.8333 23.0488ZM10.8333 41.7073C6.71667 41.7073 3.25 38.1951 3.25 34.0244C3.25 29.8537 6.71667 26.3415 10.8333 26.3415C14.95 26.3415 18.4167 29.8537 18.4167 34.0244C18.4167 38.1951 14.95 41.7073 10.8333 41.7073ZM23.4 19.7561L28.6 14.4878L30.3333 16.2439C33.15 19.0976 36.8333 20.8537 41.3833 20.8537V16.4634C38.1333 16.4634 35.5333 15.1463 33.5833 13.1707L29.4667 9C28.3833 8.12195 27.3 7.68293 26 7.68293C24.7 7.68293 23.6167 8.12195 22.9667 9L16.9 15.1463C16.0333 16.0244 15.6 17.122 15.6 18.2195C15.6 19.5366 16.0333 20.6341 16.9 21.2927L23.8333 27.439V38.4146H28.1667V24.8049L23.4 19.7561ZM41.1667 23.0488C35.1 23.0488 30.3333 27.878 30.3333 34.0244C30.3333 40.1707 35.1 45 41.1667 45C47.2333 45 52 40.1707 52 34.0244C52 27.878 47.2333 23.0488 41.1667 23.0488ZM41.1667 41.7073C37.05 41.7073 33.5833 38.1951 33.5833 34.0244C33.5833 29.8537 37.05 26.3415 41.1667 26.3415C45.2833 26.3415 48.75 29.8537 48.75 34.0244C48.75 38.1951 45.2833 41.7073 41.1667 41.7073Z" fill="#53B253"/>
</svg>
