<svg width="155" height="155" viewBox="0 0 155 155" fill="none" xmlns="http://www.w3.org/2000/svg">
<path fill-rule="evenodd" clip-rule="evenodd" d="M77.5 155C120.302 155 155 120.302 155 77.5C155 34.6979 120.302 0 77.5 0C34.6979 0 0 34.6979 0 77.5C0 120.302 34.6979 155 77.5 155Z" fill="#1EACE8"/>
<path fill-rule="evenodd" clip-rule="evenodd" d="M120 49.8943C120 48.2958 118.689 47 117.071 47H37.9296C36.3117 47 35 48.2958 35 49.8943V106.106C35 107.704 36.3117 109 37.9296 109H117.071C118.688 109 120 107.704 120 106.106V49.8943Z" stroke="white" stroke-width="2"/>
<path fill-rule="evenodd" clip-rule="evenodd" d="M57.5 76C61.642 76 65 72.642 65 68.5C65 64.3578 61.642 61 57.5 61C53.3578 61 50 64.3578 50 68.5C50 72.642 53.3578 76 57.5 76Z" stroke="white" stroke-width="2"/>
<path d="M54 109L79.3142 73.0939L89.7807 87.3152L103.242 66L120 90.5401" stroke="white" stroke-width="2"/>
</svg>
