<svg width="28" height="28" viewBox="0 0 28 28" fill="none" xmlns="http://www.w3.org/2000/svg">
<path d="M14.7584 11.6667C13.8017 8.94833 11.2117 7 8.16669 7C4.30502 7 1.16669 10.1383 1.16669 14C1.16669 17.8617 4.30502 21 8.16669 21C11.2117 21 13.8017 19.0517 14.7584 16.3333H19.8334V21H24.5V16.3333H26.8334V11.6667H14.7584ZM8.16669 16.3333C6.88335 16.3333 5.83335 15.2833 5.83335 14C5.83335 12.7167 6.88335 11.6667 8.16669 11.6667C9.45002 11.6667 10.5 12.7167 10.5 14C10.5 15.2833 9.45002 16.3333 8.16669 16.3333Z" fill="#494949"/>
</svg>
