<svg width="33" height="25" viewBox="0 0 33 25" fill="none" xmlns="http://www.w3.org/2000/svg">
<path d="M30.25 0H2.75C1.25125 0.0555556 0.055 1.26389 0 2.77778V22.2222C0.055 23.7361 1.25125 24.9444 2.75 25H30.25C31.7488 24.9444 32.945 23.7361 33 22.2222V2.77778C32.945 1.26389 31.7488 0.0555556 30.25 0ZM30.25 22.2222H2.75V2.77778H30.25V22.2222ZM19.25 19.4444V17.7083C19.25 15.4028 14.6575 14.2361 12.375 14.2361C10.0925 14.2361 5.5 15.4028 5.5 17.7083V19.4444H19.25ZM12.375 5.55556C11.4633 5.55556 10.589 5.92138 9.94432 6.57255C9.29966 7.22371 8.9375 8.10689 8.9375 9.02778C8.9375 9.48376 9.02641 9.93527 9.19916 10.3565C9.37191 10.7778 9.62512 11.1606 9.94432 11.483C10.589 12.1342 11.4633 12.5 12.375 12.5C12.8264 12.5 13.2734 12.4102 13.6905 12.2357C14.1075 12.0612 14.4865 11.8054 14.8057 11.483C15.1249 11.1606 15.3781 10.7778 15.5508 10.3565C15.7236 9.93527 15.8125 9.48376 15.8125 9.02778C15.8125 8.5718 15.7236 8.12028 15.5508 7.69902C15.3781 7.27775 15.1249 6.89497 14.8057 6.57255C14.4865 6.25012 14.1075 5.99436 13.6905 5.81986C13.2734 5.64537 12.8264 5.55556 12.375 5.55556ZM19.25 5.55556V6.94444H27.5V5.55556H19.25ZM19.25 8.33333V9.72222H27.5V8.33333H19.25ZM19.25 11.1111V12.5H24.75V11.1111H19.25Z" fill="#494949"/>
</svg>
