<svg width="22" height="24" viewBox="0 0 22 24" fill="none" xmlns="http://www.w3.org/2000/svg">
<path d="M15.939 15.6279V13.6744L13.2 16.4651L15.939 19.2558V17.3023H22V15.6279H15.939ZM19.261 20.3721H13.2V22.0465H19.261V24L22 21.2093L19.261 18.4186V20.3721ZM8.25 4.46512C9.46 4.46512 10.45 3.46047 10.45 2.23256C10.45 1.00465 9.46 0 8.25 0C7.04 0 6.05 1.00465 6.05 2.23256C6.05 3.46047 7.04 4.46512 8.25 4.46512ZM4.125 8.26046L1.1 24H3.41L5.335 15.0698L7.7 17.3023V24H9.9V15.5721L7.645 13.2837L8.305 9.93488C9.735 11.7209 11.88 12.8372 14.3 12.8372V10.6047C12.265 10.6047 10.505 9.48837 9.515 7.86977L8.47 6.08372C8.085 5.41395 7.37 5.02326 6.6 5.02326C6.325 5.02326 6.05 5.07907 5.775 5.1907L0 7.5907V12.8372H2.2V9.09767L4.125 8.26046Z" fill="white"/>
</svg>
